<svg xmlns="http://www.w3.org/2000/svg" viewBox="0 0 280 200" fill="none">
  <rect width="280" height="200" fill="#EBF1FF"/>
  <rect x="105" y="14" width="70" height="20" rx="8" fill="#2A4080"/>
  <rect x="98" y="30" width="84" height="66" rx="10" fill="#3A5CA8"/>
  <rect x="88" y="92" width="104" height="26" rx="7" fill="#5B7EC9"/>
  <rect x="80" y="84" width="14" height="36" rx="6" fill="#00BFA5"/>
  <rect x="186" y="84" width="14" height="36" rx="6" fill="#00BFA5"/>
  <rect x="132" y="118" width="16" height="28" rx="4" fill="#243360"/>
  <line x1="140" y1="148" x2="100" y2="160" stroke="#1A2540" stroke-width="5" stroke-linecap="round"/>
  <line x1="140" y1="148" x2="180" y2="160" stroke="#1A2540" stroke-width="5" stroke-linecap="round"/>
  <line x1="140" y1="148" x2="118" y2="172" stroke="#1A2540" stroke-width="5" stroke-linecap="round"/>
  <line x1="140" y1="148" x2="162" y2="172" stroke="#1A2540" stroke-width="5" stroke-linecap="round"/>
  <line x1="140" y1="148" x2="140" y2="174" stroke="#1A2540" stroke-width="5" stroke-linecap="round"/>
  <circle cx="100" cy="161" r="5" fill="#374151"/>
  <circle cx="180" cy="161" r="5" fill="#374151"/>
  <circle cx="118" cy="173" r="5" fill="#374151"/>
  <circle cx="162" cy="173" r="5" fill="#374151"/>
  <circle cx="140" cy="175" r="5" fill="#374151"/>
</svg>
