<svg xmlns="http://www.w3.org/2000/svg" viewBox="0 0 280 200" fill="none">
  <rect width="280" height="200" fill="#EBF1FF"/>
  <rect x="100" y="28" width="80" height="64" rx="10" fill="#5B7EC9"/>
  <rect x="108" y="36" width="64" height="48" rx="6" fill="#EBF1FF" opacity="0.3"/>
  <line x1="116" y1="36" x2="116" y2="84" stroke="#3A5CA8" stroke-width="2" opacity="0.5"/>
  <line x1="128" y1="36" x2="128" y2="84" stroke="#3A5CA8" stroke-width="2" opacity="0.5"/>
  <line x1="140" y1="36" x2="140" y2="84" stroke="#3A5CA8" stroke-width="2" opacity="0.5"/>
  <line x1="152" y1="36" x2="152" y2="84" stroke="#3A5CA8" stroke-width="2" opacity="0.5"/>
  <line x1="164" y1="36" x2="164" y2="84" stroke="#3A5CA8" stroke-width="2" opacity="0.5"/>
  <line x1="108" y1="50" x2="172" y2="50" stroke="#3A5CA8" stroke-width="2" opacity="0.5"/>
  <line x1="108" y1="64" x2="172" y2="64" stroke="#3A5CA8" stroke-width="2" opacity="0.5"/>
  <rect x="90" y="90" width="100" height="24" rx="7" fill="#5B7EC9"/>
  <rect x="82" y="82" width="12" height="34" rx="5" fill="#00BFA5"/>
  <rect x="186" y="82" width="12" height="34" rx="5" fill="#00BFA5"/>
  <rect x="132" y="114" width="16" height="28" rx="4" fill="#243360"/>
  <line x1="140" y1="144" x2="102" y2="156" stroke="#1A2540" stroke-width="5" stroke-linecap="round"/>
  <line x1="140" y1="144" x2="178" y2="156" stroke="#1A2540" stroke-width="5" stroke-linecap="round"/>
  <line x1="140" y1="144" x2="120" y2="168" stroke="#1A2540" stroke-width="5" stroke-linecap="round"/>
  <line x1="140" y1="144" x2="160" y2="168" stroke="#1A2540" stroke-width="5" stroke-linecap="round"/>
  <line x1="140" y1="144" x2="140" y2="170" stroke="#1A2540" stroke-width="5" stroke-linecap="round"/>
  <circle cx="102" cy="157" r="4" fill="#374151"/>
  <circle cx="178" cy="157" r="4" fill="#374151"/>
  <circle cx="120" cy="169" r="4" fill="#374151"/>
  <circle cx="160" cy="169" r="4" fill="#374151"/>
  <circle cx="140" cy="171" r="4" fill="#374151"/>
</svg>
