<svg xmlns="http://www.w3.org/2000/svg" viewBox="0 0 280 200" fill="none">
  <rect width="280" height="200" fill="#EBF1FF"/>
  <rect x="40" y="20" width="200" height="160" rx="4" fill="#3A5CA8"/>
  <rect x="40" y="68" width="200" height="6" rx="2" fill="#243360"/>
  <rect x="40" y="116" width="200" height="6" rx="2" fill="#243360"/>
  <rect x="106" y="20" width="8" height="160" fill="#243360"/>
  <rect x="172" y="20" width="8" height="160" fill="#243360"/>
  <rect x="52" y="32" width="44" height="28" rx="3" fill="#5B7EC9" opacity="0.7"/>
  <rect x="52" y="80" width="44" height="26" rx="3" fill="#00BFA5" opacity="0.6"/>
  <rect x="52" y="128" width="44" height="24" rx="3" fill="#5B7EC9" opacity="0.5"/>
  <rect x="118" y="32" width="44" height="20" rx="3" fill="#00BFA5" opacity="0.5"/>
  <rect x="118" y="80" width="44" height="30" rx="3" fill="#5B7EC9" opacity="0.7"/>
  <rect x="118" y="128" width="44" height="18" rx="3" fill="#00BFA5" opacity="0.6"/>
  <rect x="184" y="32" width="44" height="32" rx="3" fill="#5B7EC9" opacity="0.6"/>
  <rect x="184" y="80" width="44" height="22" rx="3" fill="#00BFA5" opacity="0.7"/>
  <rect x="184" y="128" width="44" height="28" rx="3" fill="#5B7EC9" opacity="0.5"/>
</svg>
